<svg width="1876.6000000000001" height="1100.0" xmlns="http://www.w3.org/2000/svg" xmlns:xlink="http://www.w3.org/1999/xlink"><line x1="605.65625" y1="7.5" x2="93.0625" y2="32.0" style="stroke:black; stroke-width:1px;" />
<line x1="605.65625" y1="7.5" x2="147.0625" y2="32.0" style="stroke:black; stroke-width:1px;" />
<line x1="605.65625" y1="7.5" x2="206.0625" y2="32.0" style="stroke:black; stroke-width:1px;" />
<line x1="206.0625" y1="39.5" x2="27.0" y2="64.0" style="stroke:black; stroke-width:1px;" />
<line x1="206.0625" y1="39.5" x2="89.5" y2="64.0" style="stroke:black; stroke-width:1px;" />
<line x1="89.5" y1="71.5" x2="89.5" y2="96.0" style="stroke:black; stroke-width:1px;" />
<line x1="89.5" y1="103.5" x2="89.5" y2="128.0" style="stroke:black; stroke-width:1px;" />
<line x1="89.5" y1="135.5" x2="89.5" y2="160.0" style="stroke:black; stroke-width:1px;" />
<line x1="206.0625" y1="39.5" x2="133.0" y2="64.0" style="stroke:black; stroke-width:1px;" />
<line x1="206.0625" y1="39.5" x2="152.0" y2="64.0" style="stroke:black; stroke-width:1px;" />
<line x1="206.0625" y1="39.5" x2="180.0" y2="64.0" style="stroke:black; stroke-width:1px;" />
<line x1="180.0" y1="71.5" x2="168.0" y2="96.0" style="stroke:black; stroke-width:1px;" />
<line x1="168.0" y1="103.5" x2="168.0" y2="128.0" style="stroke:black; stroke-width:1px;" />
<line x1="168.0" y1="135.5" x2="168.0" y2="160.0" style="stroke:black; stroke-width:1px;" />
<line x1="180.0" y1="71.5" x2="192.0" y2="96.0" style="stroke:black; stroke-width:1px;" />
<line x1="206.0625" y1="39.5" x2="259.8125" y2="64.0" style="stroke:black; stroke-width:1px;" />
<line x1="206.0625" y1="39.5" x2="337.125" y2="64.0" style="stroke:black; stroke-width:1px;" />
<line x1="337.125" y1="71.5" x2="282.875" y2="96.0" style="stroke:black; stroke-width:1px;" />
<line x1="337.125" y1="71.5" x2="339.375" y2="96.0" style="stroke:black; stroke-width:1px;" />
<line x1="339.375" y1="103.5" x2="231.25" y2="128.0" style="stroke:black; stroke-width:1px;" />
<line x1="231.25" y1="135.5" x2="211.5" y2="160.0" style="stroke:black; stroke-width:1px;" />
<line x1="211.5" y1="167.5" x2="91.0" y2="192.0" style="stroke:black; stroke-width:1px;" />
<line x1="211.5" y1="167.5" x2="132.0" y2="192.0" style="stroke:black; stroke-width:1px;" />
<line x1="132.0" y1="199.5" x2="91.0" y2="224.0" style="stroke:black; stroke-width:1px;" />
<line x1="91.0" y1="231.5" x2="91.0" y2="256.0" style="stroke:black; stroke-width:1px;" />
<line x1="91.0" y1="263.5" x2="91.0" y2="288.0" style="stroke:black; stroke-width:1px;" />
<line x1="91.0" y1="295.5" x2="91.0" y2="320.0" style="stroke:black; stroke-width:1px;" />
<line x1="132.0" y1="199.5" x2="132.0" y2="224.0" style="stroke:black; stroke-width:1px;" />
<line x1="132.0" y1="199.5" x2="173.0" y2="224.0" style="stroke:black; stroke-width:1px;" />
<line x1="173.0" y1="231.5" x2="173.0" y2="256.0" style="stroke:black; stroke-width:1px;" />
<line x1="173.0" y1="263.5" x2="173.0" y2="288.0" style="stroke:black; stroke-width:1px;" />
<line x1="173.0" y1="295.5" x2="173.0" y2="320.0" style="stroke:black; stroke-width:1px;" />
<line x1="211.5" y1="167.5" x2="202.0" y2="192.0" style="stroke:black; stroke-width:1px;" />
<line x1="211.5" y1="167.5" x2="277.0" y2="192.0" style="stroke:black; stroke-width:1px;" />
<line x1="277.0" y1="199.5" x2="277.0" y2="224.0" style="stroke:black; stroke-width:1px;" />
<line x1="277.0" y1="231.5" x2="251.5" y2="256.0" style="stroke:black; stroke-width:1px;" />
<line x1="251.5" y1="263.5" x2="224.5" y2="288.0" style="stroke:black; stroke-width:1px;" />
<line x1="251.5" y1="263.5" x2="278.5" y2="288.0" style="stroke:black; stroke-width:1px;" />
<line x1="278.5" y1="295.5" x2="278.5" y2="320.0" style="stroke:black; stroke-width:1px;" />
<line x1="278.5" y1="327.5" x2="278.5" y2="352.0" style="stroke:black; stroke-width:1px;" />
<line x1="278.5" y1="359.5" x2="278.5" y2="384.0" style="stroke:black; stroke-width:1px;" />
<line x1="277.0" y1="231.5" x2="302.5" y2="256.0" style="stroke:black; stroke-width:1px;" />
<line x1="211.5" y1="167.5" x2="332.0" y2="192.0" style="stroke:black; stroke-width:1px;" />
<line x1="231.25" y1="135.5" x2="251.0" y2="160.0" style="stroke:black; stroke-width:1px;" />
<line x1="339.375" y1="103.5" x2="447.5" y2="128.0" style="stroke:black; stroke-width:1px;" />
<line x1="447.5" y1="135.5" x2="422.0" y2="160.0" style="stroke:black; stroke-width:1px;" />
<line x1="422.0" y1="167.5" x2="395.0" y2="192.0" style="stroke:black; stroke-width:1px;" />
<line x1="422.0" y1="167.5" x2="449.0" y2="192.0" style="stroke:black; stroke-width:1px;" />
<line x1="449.0" y1="199.5" x2="374.5" y2="224.0" style="stroke:black; stroke-width:1px;" />
<line x1="374.5" y1="231.5" x2="374.5" y2="256.0" style="stroke:black; stroke-width:1px;" />
<line x1="374.5" y1="263.5" x2="374.5" y2="288.0" style="stroke:black; stroke-width:1px;" />
<line x1="374.5" y1="295.5" x2="325.0" y2="320.0" style="stroke:black; stroke-width:1px;" />
<line x1="374.5" y1="295.5" x2="344.0" y2="320.0" style="stroke:black; stroke-width:1px;" />
<line x1="374.5" y1="295.5" x2="384.0" y2="320.0" style="stroke:black; stroke-width:1px;" />
<line x1="384.0" y1="327.5" x2="344.0" y2="352.0" style="stroke:black; stroke-width:1px;" />
<line x1="344.0" y1="359.5" x2="344.0" y2="384.0" style="stroke:black; stroke-width:1px;" />
<line x1="344.0" y1="391.5" x2="344.0" y2="416.0" style="stroke:black; stroke-width:1px;" />
<line x1="344.0" y1="423.5" x2="344.0" y2="448.0" style="stroke:black; stroke-width:1px;" />
<line x1="384.0" y1="327.5" x2="384.0" y2="352.0" style="stroke:black; stroke-width:1px;" />
<line x1="384.0" y1="327.5" x2="424.0" y2="352.0" style="stroke:black; stroke-width:1px;" />
<line x1="424.0" y1="359.5" x2="424.0" y2="384.0" style="stroke:black; stroke-width:1px;" />
<line x1="424.0" y1="391.5" x2="424.0" y2="416.0" style="stroke:black; stroke-width:1px;" />
<line x1="424.0" y1="423.5" x2="424.0" y2="448.0" style="stroke:black; stroke-width:1px;" />
<line x1="374.5" y1="295.5" x2="424.0" y2="320.0" style="stroke:black; stroke-width:1px;" />
<line x1="449.0" y1="199.5" x2="449.0" y2="224.0" style="stroke:black; stroke-width:1px;" />
<line x1="449.0" y1="199.5" x2="523.5" y2="224.0" style="stroke:black; stroke-width:1px;" />
<line x1="523.5" y1="231.5" x2="523.5" y2="256.0" style="stroke:black; stroke-width:1px;" />
<line x1="523.5" y1="263.5" x2="523.5" y2="288.0" style="stroke:black; stroke-width:1px;" />
<line x1="523.5" y1="295.5" x2="474.0" y2="320.0" style="stroke:black; stroke-width:1px;" />
<line x1="523.5" y1="295.5" x2="493.0" y2="320.0" style="stroke:black; stroke-width:1px;" />
<line x1="523.5" y1="295.5" x2="533.0" y2="320.0" style="stroke:black; stroke-width:1px;" />
<line x1="533.0" y1="327.5" x2="493.0" y2="352.0" style="stroke:black; stroke-width:1px;" />
<line x1="493.0" y1="359.5" x2="493.0" y2="384.0" style="stroke:black; stroke-width:1px;" />
<line x1="493.0" y1="391.5" x2="493.0" y2="416.0" style="stroke:black; stroke-width:1px;" />
<line x1="493.0" y1="423.5" x2="493.0" y2="448.0" style="stroke:black; stroke-width:1px;" />
<line x1="533.0" y1="327.5" x2="533.0" y2="352.0" style="stroke:black; stroke-width:1px;" />
<line x1="533.0" y1="327.5" x2="573.0" y2="352.0" style="stroke:black; stroke-width:1px;" />
<line x1="573.0" y1="359.5" x2="573.0" y2="384.0" style="stroke:black; stroke-width:1px;" />
<line x1="573.0" y1="391.5" x2="573.0" y2="416.0" style="stroke:black; stroke-width:1px;" />
<line x1="573.0" y1="423.5" x2="573.0" y2="448.0" style="stroke:black; stroke-width:1px;" />
<line x1="523.5" y1="295.5" x2="573.0" y2="320.0" style="stroke:black; stroke-width:1px;" />
<line x1="447.5" y1="135.5" x2="473.0" y2="160.0" style="stroke:black; stroke-width:1px;" />
<line x1="337.125" y1="71.5" x2="391.375" y2="96.0" style="stroke:black; stroke-width:1px;" />
<line x1="206.0625" y1="39.5" x2="366.625" y2="64.0" style="stroke:black; stroke-width:1px;" />
<line x1="206.0625" y1="39.5" x2="385.125" y2="64.0" style="stroke:black; stroke-width:1px;" />
<line x1="605.65625" y1="7.5" x2="579.15625" y2="32.0" style="stroke:black; stroke-width:1px;" />
<line x1="605.65625" y1="7.5" x2="959.25" y2="32.0" style="stroke:black; stroke-width:1px;" />
<line x1="959.25" y1="39.5" x2="542.75" y2="64.0" style="stroke:black; stroke-width:1px;" />
<line x1="542.75" y1="71.5" x2="518.25" y2="96.0" style="stroke:black; stroke-width:1px;" />
<line x1="518.25" y1="103.5" x2="494.5" y2="128.0" style="stroke:black; stroke-width:1px;" />
<line x1="518.25" y1="103.5" x2="542.0" y2="128.0" style="stroke:black; stroke-width:1px;" />
<line x1="542.75" y1="71.5" x2="567.25" y2="96.0" style="stroke:black; stroke-width:1px;" />
<line x1="959.25" y1="39.5" x2="673.5" y2="64.0" style="stroke:black; stroke-width:1px;" />
<line x1="673.5" y1="71.5" x2="650.5" y2="96.0" style="stroke:black; stroke-width:1px;" />
<line x1="650.5" y1="103.5" x2="595.0" y2="128.0" style="stroke:black; stroke-width:1px;" />
<line x1="650.5" y1="103.5" x2="626.0" y2="128.0" style="stroke:black; stroke-width:1px;" />
<line x1="650.5" y1="103.5" x2="666.0" y2="128.0" style="stroke:black; stroke-width:1px;" />
<line x1="666.0" y1="135.5" x2="666.0" y2="160.0" style="stroke:black; stroke-width:1px;" />
<line x1="666.0" y1="167.5" x2="666.0" y2="192.0" style="stroke:black; stroke-width:1px;" />
<line x1="666.0" y1="199.5" x2="616.5" y2="224.0" style="stroke:black; stroke-width:1px;" />
<line x1="666.0" y1="199.5" x2="635.5" y2="224.0" style="stroke:black; stroke-width:1px;" />
<line x1="666.0" y1="199.5" x2="675.5" y2="224.0" style="stroke:black; stroke-width:1px;" />
<line x1="675.5" y1="231.5" x2="675.5" y2="256.0" style="stroke:black; stroke-width:1px;" />
<line x1="675.5" y1="263.5" x2="675.5" y2="288.0" style="stroke:black; stroke-width:1px;" />
<line x1="675.5" y1="295.5" x2="675.5" y2="320.0" style="stroke:black; stroke-width:1px;" />
<line x1="666.0" y1="199.5" x2="715.5" y2="224.0" style="stroke:black; stroke-width:1px;" />
<line x1="650.5" y1="103.5" x2="706.0" y2="128.0" style="stroke:black; stroke-width:1px;" />
<line x1="673.5" y1="71.5" x2="696.5" y2="96.0" style="stroke:black; stroke-width:1px;" />
<line x1="959.25" y1="39.5" x2="786.5" y2="64.0" style="stroke:black; stroke-width:1px;" />
<line x1="786.5" y1="71.5" x2="762.0" y2="96.0" style="stroke:black; stroke-width:1px;" />
<line x1="762.0" y1="103.5" x2="731.5" y2="128.0" style="stroke:black; stroke-width:1px;" />
<line x1="762.0" y1="103.5" x2="792.5" y2="128.0" style="stroke:black; stroke-width:1px;" />
<line x1="786.5" y1="71.5" x2="811.0" y2="96.0" style="stroke:black; stroke-width:1px;" />
<line x1="959.25" y1="39.5" x2="902.75" y2="64.0" style="stroke:black; stroke-width:1px;" />
<line x1="902.75" y1="71.5" x2="879.75" y2="96.0" style="stroke:black; stroke-width:1px;" />
<line x1="879.75" y1="103.5" x2="857.5" y2="128.0" style="stroke:black; stroke-width:1px;" />
<line x1="879.75" y1="103.5" x2="887.0" y2="128.0" style="stroke:black; stroke-width:1px;" />
<line x1="879.75" y1="103.5" x2="902.0" y2="128.0" style="stroke:black; stroke-width:1px;" />
<line x1="902.75" y1="71.5" x2="925.75" y2="96.0" style="stroke:black; stroke-width:1px;" />
<line x1="959.25" y1="39.5" x2="999.25" y2="64.0" style="stroke:black; stroke-width:1px;" />
<line x1="999.25" y1="71.5" x2="974.75" y2="96.0" style="stroke:black; stroke-width:1px;" />
<line x1="974.75" y1="103.5" x2="949.5" y2="128.0" style="stroke:black; stroke-width:1px;" />
<line x1="974.75" y1="103.5" x2="1000.0" y2="128.0" style="stroke:black; stroke-width:1px;" />
<line x1="999.25" y1="71.5" x2="1023.75" y2="96.0" style="stroke:black; stroke-width:1px;" />
<line x1="959.25" y1="39.5" x2="1134.5" y2="64.0" style="stroke:black; stroke-width:1px;" />
<line x1="1134.5" y1="71.5" x2="1111.5" y2="96.0" style="stroke:black; stroke-width:1px;" />
<line x1="1111.5" y1="103.5" x2="1056.0" y2="128.0" style="stroke:black; stroke-width:1px;" />
<line x1="1111.5" y1="103.5" x2="1087.0" y2="128.0" style="stroke:black; stroke-width:1px;" />
<line x1="1111.5" y1="103.5" x2="1127.0" y2="128.0" style="stroke:black; stroke-width:1px;" />
<line x1="1127.0" y1="135.5" x2="1127.0" y2="160.0" style="stroke:black; stroke-width:1px;" />
<line x1="1127.0" y1="167.5" x2="1127.0" y2="192.0" style="stroke:black; stroke-width:1px;" />
<line x1="1127.0" y1="199.5" x2="1077.5" y2="224.0" style="stroke:black; stroke-width:1px;" />
<line x1="1127.0" y1="199.5" x2="1096.5" y2="224.0" style="stroke:black; stroke-width:1px;" />
<line x1="1127.0" y1="199.5" x2="1136.5" y2="224.0" style="stroke:black; stroke-width:1px;" />
<line x1="1136.5" y1="231.5" x2="1136.5" y2="256.0" style="stroke:black; stroke-width:1px;" />
<line x1="1136.5" y1="263.5" x2="1136.5" y2="288.0" style="stroke:black; stroke-width:1px;" />
<line x1="1136.5" y1="295.5" x2="1136.5" y2="320.0" style="stroke:black; stroke-width:1px;" />
<line x1="1127.0" y1="199.5" x2="1176.5" y2="224.0" style="stroke:black; stroke-width:1px;" />
<line x1="1111.5" y1="103.5" x2="1167.0" y2="128.0" style="stroke:black; stroke-width:1px;" />
<line x1="1134.5" y1="71.5" x2="1157.5" y2="96.0" style="stroke:black; stroke-width:1px;" />
<line x1="959.25" y1="39.5" x2="1250.5" y2="64.0" style="stroke:black; stroke-width:1px;" />
<line x1="1250.5" y1="71.5" x2="1226.0" y2="96.0" style="stroke:black; stroke-width:1px;" />
<line x1="1226.0" y1="103.5" x2="1192.5" y2="128.0" style="stroke:black; stroke-width:1px;" />
<line x1="1226.0" y1="103.5" x2="1259.5" y2="128.0" style="stroke:black; stroke-width:1px;" />
<line x1="1250.5" y1="71.5" x2="1275.0" y2="96.0" style="stroke:black; stroke-width:1px;" />
<line x1="959.25" y1="39.5" x2="1375.75" y2="64.0" style="stroke:black; stroke-width:1px;" />
<line x1="1375.75" y1="71.5" x2="1352.75" y2="96.0" style="stroke:black; stroke-width:1px;" />
<line x1="1352.75" y1="103.5" x2="1330.5" y2="128.0" style="stroke:black; stroke-width:1px;" />
<line x1="1352.75" y1="103.5" x2="1360.0" y2="128.0" style="stroke:black; stroke-width:1px;" />
<line x1="1352.75" y1="103.5" x2="1375.0" y2="128.0" style="stroke:black; stroke-width:1px;" />
<line x1="1375.75" y1="71.5" x2="1398.75" y2="96.0" style="stroke:black; stroke-width:1px;" />
<line x1="605.65625" y1="7.5" x2="1011.25" y2="32.0" style="stroke:black; stroke-width:1px;" />
<line x1="605.65625" y1="7.5" x2="1054.25" y2="32.0" style="stroke:black; stroke-width:1px;" />
<line x1="605.65625" y1="7.5" x2="1089.75" y2="32.0" style="stroke:black; stroke-width:1px;" />
<line x1="605.65625" y1="7.5" x2="1118.25" y2="32.0" style="stroke:black; stroke-width:1px;" />
<rect x="142.0" y="256.0" width="62.0" height="15.0" style="fill:orange; stroke:rgb(0,0,0);" rx="1"/>
<text x="144" y="265" style="font-family:sans-serif;font-size:10px;">
primaryExpr
</text>
<rect x="529.0" y="352.0" width="8.0" height="15.0" style="fill:orange; stroke:rgb(0,0,0);" rx="1"/>
<text x="531" y="361" style="font-family:sans-serif;font-size:10px;">
-
</text>
<rect x="160.5" y="160.0" width="15.0" height="15.0" style="fill:orange; stroke:rgb(0,0,0);" rx="1"/>
<text x="162" y="169" style="font-family:sans-serif;font-size:10px;">
int
</text>
<rect x="670.5" y="320.0" width="10.0" height="15.0" style="fill:orange; stroke:rgb(0,0,0);" rx="1"/>
<text x="672" y="329" style="font-family:sans-serif;font-size:10px;">
2
</text>
<rect x="1395.25" y="96.0" width="7.0" height="15.0" style="fill:orange; stroke:rgb(0,0,0);" rx="1"/>
<text x="1397" y="105" style="font-family:sans-serif;font-size:10px;">
;
</text>
<rect x="409.5" y="416.0" width="29.0" height="15.0" style="fill:orange; stroke:rgb(0,0,0);" rx="1"/>
<text x="411" y="425" style="font-family:sans-serif;font-size:10px;">
literal
</text>
<rect x="462.0" y="384.0" width="62.0" height="15.0" style="fill:orange; stroke:rgb(0,0,0);" rx="1"/>
<text x="464" y="393" style="font-family:sans-serif;font-size:10px;">
primaryExpr
</text>
<rect x="630.5" y="192.0" width="71.0" height="15.0" style="fill:orange; stroke:rgb(0,0,0);" rx="1"/>
<text x="632" y="201" style="font-family:sans-serif;font-size:10px;">
procedureCall
</text>
<rect x="63.5" y="128.0" width="52.0" height="15.0" style="fill:orange; stroke:rgb(0,0,0);" rx="1"/>
<text x="65" y="137" style="font-family:sans-serif;font-size:10px;">
baseType
</text>
<rect x="583.65625" y="0.0" width="44.0" height="15.0" style="fill:orange; stroke:rgb(0,0,0);" rx="1"/>
<text x="585" y="9" style="font-family:sans-serif;font-size:10px;">
program
</text>
<rect x="0.0" y="64.0" width="54.0" height="15.0" style="fill:orange; stroke:rgb(0,0,0);" rx="1"/>
<text x="2" y="73" style="font-family:sans-serif;font-size:10px;">
Procedure
</text>
<rect x="339.5" y="448.0" width="9.0" height="15.0" style="fill:orange; stroke:rgb(0,0,0);" rx="1"/>
<text x="341" y="457" style="font-family:sans-serif;font-size:10px;">
k
</text>
<rect x="1020.25" y="96.0" width="7.0" height="15.0" style="fill:orange; stroke:rgb(0,0,0);" rx="1"/>
<text x="1022" y="105" style="font-family:sans-serif;font-size:10px;">
;
</text>
<rect x="1109.0" y="64.0" width="51.0" height="15.0" style="fill:orange; stroke:rgb(0,0,0);" rx="1"/>
<text x="1111" y="73" style="font-family:sans-serif;font-size:10px;">
statement
</text>
<rect x="1105.5" y="256.0" width="62.0" height="15.0" style="fill:orange; stroke:rgb(0,0,0);" rx="1"/>
<text x="1107" y="265" style="font-family:sans-serif;font-size:10px;">
primaryExpr
</text>
<rect x="1086.25" y="32.0" width="7.0" height="15.0" style="fill:orange; stroke:rgb(0,0,0);" rx="1"/>
<text x="1088" y="41" style="font-family:sans-serif;font-size:10px;">
.
</text>
<rect x="395.0" y="352.0" width="58.0" height="15.0" style="fill:orange; stroke:rgb(0,0,0);" rx="1"/>
<text x="397" y="361" style="font-family:sans-serif;font-size:10px;">
expression
</text>
<rect x="569.0" y="320.0" width="8.0" height="15.0" style="fill:orange; stroke:rgb(0,0,0);" rx="1"/>
<text x="571" y="329" style="font-family:sans-serif;font-size:10px;">
)
</text>
<rect x="479.75" y="96.0" width="77.0" height="15.0" style="fill:orange; stroke:rgb(0,0,0);" rx="1"/>
<text x="481" y="105" style="font-family:sans-serif;font-size:10px;">
writeStatement
</text>
<rect x="971.0" y="128.0" width="58.0" height="15.0" style="fill:orange; stroke:rgb(0,0,0);" rx="1"/>
<text x="973" y="137" style="font-family:sans-serif;font-size:10px;">
"fib(12)·=·"
</text>
<rect x="380.375" y="96.0" width="22.0" height="15.0" style="fill:orange; stroke:rgb(0,0,0);" rx="1"/>
<text x="382" y="105" style="font-family:sans-serif;font-size:10px;">
End
</text>
<rect x="1069.5" y="224.0" width="16.0" height="15.0" style="fill:orange; stroke:rgb(0,0,0);" rx="1"/>
<text x="1071" y="233" style="font-family:sans-serif;font-size:10px;">
fib
</text>
<rect x="267.375" y="96.0" width="31.0" height="15.0" style="fill:orange; stroke:rgb(0,0,0);" rx="1"/>
<text x="269" y="105" style="font-family:sans-serif;font-size:10px;">
Begin
</text>
<rect x="420.0" y="192.0" width="58.0" height="15.0" style="fill:orange; stroke:rgb(0,0,0);" rx="1"/>
<text x="422" y="201" style="font-family:sans-serif;font-size:10px;">
expression
</text>
<rect x="103.0" y="192.0" width="58.0" height="15.0" style="fill:orange; stroke:rgb(0,0,0);" rx="1"/>
<text x="105" y="201" style="font-family:sans-serif;font-size:10px;">
expression
</text>
<rect x="305.375" y="96.0" width="68.0" height="15.0" style="fill:orange; stroke:rgb(0,0,0);" rx="1"/>
<text x="307" y="105" style="font-family:sans-serif;font-size:10px;">
statementList
</text>
<rect x="345.5" y="224.0" width="58.0" height="15.0" style="fill:orange; stroke:rgb(0,0,0);" rx="1"/>
<text x="347" y="233" style="font-family:sans-serif;font-size:10px;">
expression
</text>
<rect x="419.0" y="448.0" width="10.0" height="15.0" style="fill:orange; stroke:rgb(0,0,0);" rx="1"/>
<text x="421" y="457" style="font-family:sans-serif;font-size:10px;">
1
</text>
<rect x="62.0" y="224.0" width="58.0" height="15.0" style="fill:orange; stroke:rgb(0,0,0);" rx="1"/>
<text x="64" y="233" style="font-family:sans-serif;font-size:10px;">
expression
</text>
<rect x="463.5" y="416.0" width="59.0" height="15.0" style="fill:orange; stroke:rgb(0,0,0);" rx="1"/>
<text x="465" y="425" style="font-family:sans-serif;font-size:10px;">
fullIdentifier
</text>
<rect x="761.0" y="64.0" width="51.0" height="15.0" style="fill:orange; stroke:rgb(0,0,0);" rx="1"/>
<text x="763" y="73" style="font-family:sans-serif;font-size:10px;">
statement
</text>
<rect x="168.0" y="320.0" width="10.0" height="15.0" style="fill:orange; stroke:rgb(0,0,0);" rx="1"/>
<text x="170" y="329" style="font-family:sans-serif;font-size:10px;">
2
</text>
<rect x="711.5" y="224.0" width="8.0" height="15.0" style="fill:orange; stroke:rgb(0,0,0);" rx="1"/>
<text x="713" y="233" style="font-family:sans-serif;font-size:10px;">
)
</text>
<rect x="877.25" y="64.0" width="51.0" height="15.0" style="fill:orange; stroke:rgb(0,0,0);" rx="1"/>
<text x="879" y="73" style="font-family:sans-serif;font-size:10px;">
statement
</text>
<rect x="1083.0" y="128.0" width="8.0" height="15.0" style="fill:orange; stroke:rgb(0,0,0);" rx="1"/>
<text x="1085" y="137" style="font-family:sans-serif;font-size:10px;">
(
</text>
<rect x="61.0" y="64.0" width="57.0" height="15.0" style="fill:orange; stroke:rgb(0,0,0);" rx="1"/>
<text x="63" y="73" style="font-family:sans-serif;font-size:10px;">
returnType
</text>
<rect x="464.0" y="352.0" width="58.0" height="15.0" style="fill:orange; stroke:rgb(0,0,0);" rx="1"/>
<text x="466" y="361" style="font-family:sans-serif;font-size:10px;">
expression
</text>
<rect x="1371.0" y="128.0" width="8.0" height="15.0" style="fill:orange; stroke:rgb(0,0,0);" rx="1"/>
<text x="1373" y="137" style="font-family:sans-serif;font-size:10px;">
)
</text>
<rect x="299.0" y="256.0" width="7.0" height="15.0" style="fill:orange; stroke:rgb(0,0,0);" rx="1"/>
<text x="301" y="265" style="font-family:sans-serif;font-size:10px;">
;
</text>
<rect x="1000.25" y="32.0" width="22.0" height="15.0" style="fill:orange; stroke:rgb(0,0,0);" rx="1"/>
<text x="1002" y="41" style="font-family:sans-serif;font-size:10px;">
End
</text>
<rect x="1029.25" y="32.0" width="50.0" height="15.0" style="fill:orange; stroke:rgb(0,0,0);" rx="1"/>
<text x="1031" y="41" style="font-family:sans-serif;font-size:10px;">
Fibonacci
</text>
<rect x="322.625" y="64.0" width="29.0" height="15.0" style="fill:orange; stroke:rgb(0,0,0);" rx="1"/>
<text x="324" y="73" style="font-family:sans-serif;font-size:10px;">
block
</text>
<rect x="182.5" y="160.0" width="58.0" height="15.0" style="fill:orange; stroke:rgb(0,0,0);" rx="1"/>
<text x="184" y="169" style="font-family:sans-serif;font-size:10px;">
ifStatement
</text>
<rect x="568.0" y="448.0" width="10.0" height="15.0" style="fill:orange; stroke:rgb(0,0,0);" rx="1"/>
<text x="570" y="457" style="font-family:sans-serif;font-size:10px;">
2
</text>
<rect x="898.0" y="128.0" width="8.0" height="15.0" style="fill:orange; stroke:rgb(0,0,0);" rx="1"/>
<text x="900" y="137" style="font-family:sans-serif;font-size:10px;">
)
</text>
<rect x="753.0" y="128.0" width="79.0" height="15.0" style="fill:orange; stroke:rgb(0,0,0);" rx="1"/>
<text x="755" y="137" style="font-family:sans-serif;font-size:10px;">
"·(1·expected)"
</text>
<rect x="1154.0" y="96.0" width="7.0" height="15.0" style="fill:orange; stroke:rgb(0,0,0);" rx="1"/>
<text x="1156" y="105" style="font-family:sans-serif;font-size:10px;">
;
</text>
<rect x="615.0" y="96.0" width="71.0" height="15.0" style="fill:orange; stroke:rgb(0,0,0);" rx="1"/>
<text x="617" y="105" style="font-family:sans-serif;font-size:10px;">
procedureCall
</text>
<rect x="381.625" y="64.0" width="7.0" height="15.0" style="fill:orange; stroke:rgb(0,0,0);" rx="1"/>
<text x="383" y="73" style="font-family:sans-serif;font-size:10px;">
;
</text>
<rect x="558.5" y="416.0" width="29.0" height="15.0" style="fill:orange; stroke:rgb(0,0,0);" rx="1"/>
<text x="560" y="425" style="font-family:sans-serif;font-size:10px;">
literal
</text>
<rect x="444.0" y="224.0" width="10.0" height="15.0" style="fill:orange; stroke:rgb(0,0,0);" rx="1"/>
<text x="446" y="233" style="font-family:sans-serif;font-size:10px;">
+
</text>
<rect x="358.625" y="64.0" width="16.0" height="15.0" style="fill:orange; stroke:rgb(0,0,0);" rx="1"/>
<text x="360" y="73" style="font-family:sans-serif;font-size:10px;">
fib
</text>
<rect x="274.0" y="384.0" width="9.0" height="15.0" style="fill:orange; stroke:rgb(0,0,0);" rx="1"/>
<text x="276" y="393" style="font-family:sans-serif;font-size:10px;">
k
</text>
<rect x="635.0" y="160.0" width="62.0" height="15.0" style="fill:orange; stroke:rgb(0,0,0);" rx="1"/>
<text x="637" y="169" style="font-family:sans-serif;font-size:10px;">
primaryExpr
</text>
<rect x="544.0" y="352.0" width="58.0" height="15.0" style="fill:orange; stroke:rgb(0,0,0);" rx="1"/>
<text x="546" y="361" style="font-family:sans-serif;font-size:10px;">
expression
</text>
<rect x="1225.0" y="64.0" width="51.0" height="15.0" style="fill:orange; stroke:rgb(0,0,0);" rx="1"/>
<text x="1227" y="73" style="font-family:sans-serif;font-size:10px;">
statement
</text>
<rect x="355.0" y="320.0" width="58.0" height="15.0" style="fill:orange; stroke:rgb(0,0,0);" rx="1"/>
<text x="357" y="329" style="font-family:sans-serif;font-size:10px;">
expression
</text>
<rect x="563.75" y="96.0" width="7.0" height="15.0" style="fill:orange; stroke:rgb(0,0,0);" rx="1"/>
<text x="565" y="105" style="font-family:sans-serif;font-size:10px;">
;
</text>
<rect x="466.0" y="320.0" width="16.0" height="15.0" style="fill:orange; stroke:rgb(0,0,0);" rx="1"/>
<text x="468" y="329" style="font-family:sans-serif;font-size:10px;">
fib
</text>
<rect x="1076.0" y="96.0" width="71.0" height="15.0" style="fill:orange; stroke:rgb(0,0,0);" rx="1"/>
<text x="1078" y="105" style="font-family:sans-serif;font-size:10px;">
procedureCall
</text>
<rect x="504.0" y="320.0" width="58.0" height="15.0" style="fill:orange; stroke:rgb(0,0,0);" rx="1"/>
<text x="506" y="329" style="font-family:sans-serif;font-size:10px;">
expression
</text>
<rect x="494.5" y="224.0" width="58.0" height="15.0" style="fill:orange; stroke:rgb(0,0,0);" rx="1"/>
<text x="496" y="233" style="font-family:sans-serif;font-size:10px;">
expression
</text>
<rect x="575.0" y="128.0" width="40.0" height="15.0" style="fill:orange; stroke:rgb(0,0,0);" rx="1"/>
<text x="577" y="137" style="font-family:sans-serif;font-size:10px;">
writeint
</text>
<rect x="608.5" y="224.0" width="16.0" height="15.0" style="fill:orange; stroke:rgb(0,0,0);" rx="1"/>
<text x="610" y="233" style="font-family:sans-serif;font-size:10px;">
fib
</text>
<rect x="488.0" y="288.0" width="71.0" height="15.0" style="fill:orange; stroke:rgb(0,0,0);" rx="1"/>
<text x="490" y="297" style="font-family:sans-serif;font-size:10px;">
procedureCall
</text>
<rect x="1098.0" y="128.0" width="58.0" height="15.0" style="fill:orange; stroke:rgb(0,0,0);" rx="1"/>
<text x="1100" y="137" style="font-family:sans-serif;font-size:10px;">
expression
</text>
<rect x="255.8125" y="64.0" width="8.0" height="15.0" style="fill:orange; stroke:rgb(0,0,0);" rx="1"/>
<text x="257" y="73" style="font-family:sans-serif;font-size:10px;">
)
</text>
<rect x="517.25" y="64.0" width="51.0" height="15.0" style="fill:orange; stroke:rgb(0,0,0);" rx="1"/>
<text x="519" y="73" style="font-family:sans-serif;font-size:10px;">
statement
</text>
<rect x="516.0" y="128.0" width="52.0" height="15.0" style="fill:orange; stroke:rgb(0,0,0);" rx="1"/>
<text x="518" y="137" style="font-family:sans-serif;font-size:10px;">
"fib(2)·=·"
</text>
<rect x="187.5" y="96.0" width="9.0" height="15.0" style="fill:orange; stroke:rgb(0,0,0);" rx="1"/>
<text x="189" y="105" style="font-family:sans-serif;font-size:10px;">
k
</text>
<rect x="251.5" y="224.0" width="51.0" height="15.0" style="fill:orange; stroke:rgb(0,0,0);" rx="1"/>
<text x="253" y="233" style="font-family:sans-serif;font-size:10px;">
statement
</text>
<rect x="318.0" y="192.0" width="28.0" height="15.0" style="fill:orange; stroke:rgb(0,0,0);" rx="1"/>
<text x="320" y="201" style="font-family:sans-serif;font-size:10px;">
EndIf
</text>
<rect x="622.0" y="128.0" width="8.0" height="15.0" style="fill:orange; stroke:rgb(0,0,0);" rx="1"/>
<text x="624" y="137" style="font-family:sans-serif;font-size:10px;">
(
</text>
<rect x="179.0625" y="32.0" width="54.0" height="15.0" style="fill:orange; stroke:rgb(0,0,0);" rx="1"/>
<text x="181" y="41" style="font-family:sans-serif;font-size:10px;">
procedure
</text>
<rect x="631.5" y="224.0" width="8.0" height="15.0" style="fill:orange; stroke:rgb(0,0,0);" rx="1"/>
<text x="633" y="233" style="font-family:sans-serif;font-size:10px;">
(
</text>
<rect x="839.0" y="128.0" width="37.0" height="15.0" style="fill:orange; stroke:rgb(0,0,0);" rx="1"/>
<text x="841" y="137" style="font-family:sans-serif;font-size:10px;">
writeln
</text>
<rect x="883.0" y="128.0" width="8.0" height="15.0" style="fill:orange; stroke:rgb(0,0,0);" rx="1"/>
<text x="885" y="137" style="font-family:sans-serif;font-size:10px;">
(
</text>
<rect x="489.0" y="320.0" width="8.0" height="15.0" style="fill:orange; stroke:rgb(0,0,0);" rx="1"/>
<text x="491" y="329" style="font-family:sans-serif;font-size:10px;">
(
</text>
<rect x="243.0" y="192.0" width="68.0" height="15.0" style="fill:orange; stroke:rgb(0,0,0);" rx="1"/>
<text x="245" y="201" style="font-family:sans-serif;font-size:10px;">
statementList
</text>
<rect x="644.5" y="256.0" width="62.0" height="15.0" style="fill:orange; stroke:rgb(0,0,0);" rx="1"/>
<text x="646" y="265" style="font-family:sans-serif;font-size:10px;">
primaryExpr
</text>
<rect x="340.0" y="320.0" width="8.0" height="15.0" style="fill:orange; stroke:rgb(0,0,0);" rx="1"/>
<text x="342" y="329" style="font-family:sans-serif;font-size:10px;">
(
</text>
<rect x="1091.5" y="192.0" width="71.0" height="15.0" style="fill:orange; stroke:rgb(0,0,0);" rx="1"/>
<text x="1093" y="201" style="font-family:sans-serif;font-size:10px;">
procedureCall
</text>
<rect x="648.0" y="64.0" width="51.0" height="15.0" style="fill:orange; stroke:rgb(0,0,0);" rx="1"/>
<text x="650" y="73" style="font-family:sans-serif;font-size:10px;">
statement
</text>
<rect x="936.25" y="96.0" width="77.0" height="15.0" style="fill:orange; stroke:rgb(0,0,0);" rx="1"/>
<text x="938" y="105" style="font-family:sans-serif;font-size:10px;">
writeStatement
</text>
<rect x="1092.5" y="224.0" width="8.0" height="15.0" style="fill:orange; stroke:rgb(0,0,0);" rx="1"/>
<text x="1094" y="233" style="font-family:sans-serif;font-size:10px;">
(
</text>
<rect x="488.5" y="448.0" width="9.0" height="15.0" style="fill:orange; stroke:rgb(0,0,0);" rx="1"/>
<text x="490" y="457" style="font-family:sans-serif;font-size:10px;">
k
</text>
<rect x="125.0" y="64.0" width="16.0" height="15.0" style="fill:orange; stroke:rgb(0,0,0);" rx="1"/>
<text x="127" y="73" style="font-family:sans-serif;font-size:10px;">
fib
</text>
<rect x="247.5" y="160.0" width="7.0" height="15.0" style="fill:orange; stroke:rgb(0,0,0);" rx="1"/>
<text x="249" y="169" style="font-family:sans-serif;font-size:10px;">
;
</text>
<rect x="935.0" y="128.0" width="29.0" height="15.0" style="fill:orange; stroke:rgb(0,0,0);" rx="1"/>
<text x="937" y="137" style="font-family:sans-serif;font-size:10px;">
Write
</text>
<rect x="542.0" y="384.0" width="62.0" height="15.0" style="fill:orange; stroke:rgb(0,0,0);" rx="1"/>
<text x="544" y="393" style="font-family:sans-serif;font-size:10px;">
primaryExpr
</text>
<rect x="844.25" y="96.0" width="71.0" height="15.0" style="fill:orange; stroke:rgb(0,0,0);" rx="1"/>
<text x="846" y="105" style="font-family:sans-serif;font-size:10px;">
procedureCall
</text>
<rect x="422.0" y="128.0" width="51.0" height="15.0" style="fill:orange; stroke:rgb(0,0,0);" rx="1"/>
<text x="424" y="137" style="font-family:sans-serif;font-size:10px;">
statement
</text>
<rect x="158.5" y="288.0" width="29.0" height="15.0" style="fill:orange; stroke:rgb(0,0,0);" rx="1"/>
<text x="160" y="297" style="font-family:sans-serif;font-size:10px;">
literal
</text>
<rect x="1187.5" y="96.0" width="77.0" height="15.0" style="fill:orange; stroke:rgb(0,0,0);" rx="1"/>
<text x="1189" y="105" style="font-family:sans-serif;font-size:10px;">
writeStatement
</text>
<rect x="807.5" y="96.0" width="7.0" height="15.0" style="fill:orange; stroke:rgb(0,0,0);" rx="1"/>
<text x="809" y="105" style="font-family:sans-serif;font-size:10px;">
;
</text>
<rect x="205.75" y="128.0" width="51.0" height="15.0" style="fill:orange; stroke:rgb(0,0,0);" rx="1"/>
<text x="207" y="137" style="font-family:sans-serif;font-size:10px;">
statement
</text>
<rect x="1214.0" y="128.0" width="91.0" height="15.0" style="fill:orange; stroke:rgb(0,0,0);" rx="1"/>
<text x="1216" y="137" style="font-family:sans-serif;font-size:10px;">
"·(144·expected)"
</text>
<rect x="188.0" y="192.0" width="28.0" height="15.0" style="fill:orange; stroke:rgb(0,0,0);" rx="1"/>
<text x="190" y="201" style="font-family:sans-serif;font-size:10px;">
Then
</text>
<rect x="420.0" y="320.0" width="8.0" height="15.0" style="fill:orange; stroke:rgb(0,0,0);" rx="1"/>
<text x="422" y="329" style="font-family:sans-serif;font-size:10px;">
)
</text>
<rect x="82.0" y="160.0" width="15.0" height="15.0" style="fill:orange; stroke:rgb(0,0,0);" rx="1"/>
<text x="84" y="169" style="font-family:sans-serif;font-size:10px;">
int
</text>
<rect x="86.5" y="320.0" width="9.0" height="15.0" style="fill:orange; stroke:rgb(0,0,0);" rx="1"/>
<text x="88" y="329" style="font-family:sans-serif;font-size:10px;">
k
</text>
<rect x="1100.25" y="32.0" width="36.0" height="15.0" style="fill:orange; stroke:rgb(0,0,0);" rx="1"/>
<text x="1102" y="41" style="font-family:sans-serif;font-size:10px;">
&lt;EOF&gt;
</text>
<rect x="155.5" y="96.0" width="25.0" height="15.0" style="fill:orange; stroke:rgb(0,0,0);" rx="1"/>
<text x="157" y="105" style="font-family:sans-serif;font-size:10px;">
type
</text>
<rect x="86.0" y="192.0" width="10.0" height="15.0" style="fill:orange; stroke:rgb(0,0,0);" rx="1"/>
<text x="88" y="201" style="font-family:sans-serif;font-size:10px;">
If
</text>
<rect x="339.0" y="288.0" width="71.0" height="15.0" style="fill:orange; stroke:rgb(0,0,0);" rx="1"/>
<text x="341" y="297" style="font-family:sans-serif;font-size:10px;">
procedureCall
</text>
<rect x="313.0" y="384.0" width="62.0" height="15.0" style="fill:orange; stroke:rgb(0,0,0);" rx="1"/>
<text x="315" y="393" style="font-family:sans-serif;font-size:10px;">
primaryExpr
</text>
<rect x="343.5" y="256.0" width="62.0" height="15.0" style="fill:orange; stroke:rgb(0,0,0);" rx="1"/>
<text x="345" y="265" style="font-family:sans-serif;font-size:10px;">
primaryExpr
</text>
<rect x="693.0" y="96.0" width="7.0" height="15.0" style="fill:orange; stroke:rgb(0,0,0);" rx="1"/>
<text x="695" y="105" style="font-family:sans-serif;font-size:10px;">
;
</text>
<rect x="393.0" y="384.0" width="62.0" height="15.0" style="fill:orange; stroke:rgb(0,0,0);" rx="1"/>
<text x="395" y="393" style="font-family:sans-serif;font-size:10px;">
primaryExpr
</text>
<rect x="925.25" y="32.0" width="68.0" height="15.0" style="fill:orange; stroke:rgb(0,0,0);" rx="1"/>
<text x="927" y="41" style="font-family:sans-serif;font-size:10px;">
statementList
</text>
<rect x="61.5" y="288.0" width="59.0" height="15.0" style="fill:orange; stroke:rgb(0,0,0);" rx="1"/>
<text x="63" y="297" style="font-family:sans-serif;font-size:10px;">
fullIdentifier
</text>
<rect x="148.0" y="64.0" width="8.0" height="15.0" style="fill:orange; stroke:rgb(0,0,0);" rx="1"/>
<text x="150" y="73" style="font-family:sans-serif;font-size:10px;">
(
</text>
<rect x="702.0" y="128.0" width="8.0" height="15.0" style="fill:orange; stroke:rgb(0,0,0);" rx="1"/>
<text x="704" y="137" style="font-family:sans-serif;font-size:10px;">
)
</text>
<rect x="1271.5" y="96.0" width="7.0" height="15.0" style="fill:orange; stroke:rgb(0,0,0);" rx="1"/>
<text x="1273" y="105" style="font-family:sans-serif;font-size:10px;">
;
</text>
<rect x="380.0" y="352.0" width="8.0" height="15.0" style="fill:orange; stroke:rgb(0,0,0);" rx="1"/>
<text x="382" y="361" style="font-family:sans-serif;font-size:10px;">
-
</text>
<rect x="1036.0" y="128.0" width="40.0" height="15.0" style="fill:orange; stroke:rgb(0,0,0);" rx="1"/>
<text x="1038" y="137" style="font-family:sans-serif;font-size:10px;">
writeint
</text>
<rect x="1317.25" y="96.0" width="71.0" height="15.0" style="fill:orange; stroke:rgb(0,0,0);" rx="1"/>
<text x="1319" y="105" style="font-family:sans-serif;font-size:10px;">
procedureCall
</text>
<rect x="314.5" y="416.0" width="59.0" height="15.0" style="fill:orange; stroke:rgb(0,0,0);" rx="1"/>
<text x="316" y="425" style="font-family:sans-serif;font-size:10px;">
fullIdentifier
</text>
<rect x="492.5" y="256.0" width="62.0" height="15.0" style="fill:orange; stroke:rgb(0,0,0);" rx="1"/>
<text x="494" y="265" style="font-family:sans-serif;font-size:10px;">
primaryExpr
</text>
<rect x="646.5" y="224.0" width="58.0" height="15.0" style="fill:orange; stroke:rgb(0,0,0);" rx="1"/>
<text x="648" y="233" style="font-family:sans-serif;font-size:10px;">
expression
</text>
<rect x="723.5" y="96.0" width="77.0" height="15.0" style="fill:orange; stroke:rgb(0,0,0);" rx="1"/>
<text x="725" y="105" style="font-family:sans-serif;font-size:10px;">
writeStatement
</text>
<rect x="206.5" y="288.0" width="36.0" height="15.0" style="fill:orange; stroke:rgb(0,0,0);" rx="1"/>
<text x="208" y="297" style="font-family:sans-serif;font-size:10px;">
Return
</text>
<rect x="211.0" y="256.0" width="81.0" height="15.0" style="fill:orange; stroke:rgb(0,0,0);" rx="1"/>
<text x="213" y="265" style="font-family:sans-serif;font-size:10px;">
returnStatement
</text>
<rect x="71.0625" y="32.0" width="44.0" height="15.0" style="fill:orange; stroke:rgb(0,0,0);" rx="1"/>
<text x="73" y="41" style="font-family:sans-serif;font-size:10px;">
Program
</text>
<rect x="377.0" y="192.0" width="36.0" height="15.0" style="fill:orange; stroke:rgb(0,0,0);" rx="1"/>
<text x="379" y="201" style="font-family:sans-serif;font-size:10px;">
Return
</text>
<rect x="563.65625" y="32.0" width="31.0" height="15.0" style="fill:orange; stroke:rgb(0,0,0);" rx="1"/>
<text x="565" y="41" style="font-family:sans-serif;font-size:10px;">
Begin
</text>
<rect x="973.75" y="64.0" width="51.0" height="15.0" style="fill:orange; stroke:rgb(0,0,0);" rx="1"/>
<text x="975" y="73" style="font-family:sans-serif;font-size:10px;">
statement
</text>
<rect x="1172.5" y="224.0" width="8.0" height="15.0" style="fill:orange; stroke:rgb(0,0,0);" rx="1"/>
<text x="1174" y="233" style="font-family:sans-serif;font-size:10px;">
)
</text>
<rect x="1350.25" y="64.0" width="51.0" height="15.0" style="fill:orange; stroke:rgb(0,0,0);" rx="1"/>
<text x="1352" y="73" style="font-family:sans-serif;font-size:10px;">
statement
</text>
<rect x="1356.0" y="128.0" width="8.0" height="15.0" style="fill:orange; stroke:rgb(0,0,0);" rx="1"/>
<text x="1358" y="137" style="font-family:sans-serif;font-size:10px;">
(
</text>
<rect x="480.0" y="128.0" width="29.0" height="15.0" style="fill:orange; stroke:rgb(0,0,0);" rx="1"/>
<text x="482" y="137" style="font-family:sans-serif;font-size:10px;">
Write
</text>
<rect x="247.5" y="320.0" width="62.0" height="15.0" style="fill:orange; stroke:rgb(0,0,0);" rx="1"/>
<text x="249" y="329" style="font-family:sans-serif;font-size:10px;">
primaryExpr
</text>
<rect x="1178.0" y="128.0" width="29.0" height="15.0" style="fill:orange; stroke:rgb(0,0,0);" rx="1"/>
<text x="1180" y="137" style="font-family:sans-serif;font-size:10px;">
Write
</text>
<rect x="122.0625" y="32.0" width="50.0" height="15.0" style="fill:orange; stroke:rgb(0,0,0);" rx="1"/>
<text x="124" y="41" style="font-family:sans-serif;font-size:10px;">
Fibonacci
</text>
<rect x="661.0" y="288.0" width="29.0" height="15.0" style="fill:orange; stroke:rgb(0,0,0);" rx="1"/>
<text x="663" y="297" style="font-family:sans-serif;font-size:10px;">
literal
</text>
<rect x="77.0" y="96.0" width="25.0" height="15.0" style="fill:orange; stroke:rgb(0,0,0);" rx="1"/>
<text x="79" y="105" style="font-family:sans-serif;font-size:10px;">
type
</text>
<rect x="1312.0" y="128.0" width="37.0" height="15.0" style="fill:orange; stroke:rgb(0,0,0);" rx="1"/>
<text x="1314" y="137" style="font-family:sans-serif;font-size:10px;">
writeln
</text>
<rect x="717.0" y="128.0" width="29.0" height="15.0" style="fill:orange; stroke:rgb(0,0,0);" rx="1"/>
<text x="719" y="137" style="font-family:sans-serif;font-size:10px;">
Write
</text>
<rect x="163.0" y="64.0" width="34.0" height="15.0" style="fill:orange; stroke:rgb(0,0,0);" rx="1"/>
<text x="165" y="73" style="font-family:sans-serif;font-size:10px;">
param
</text>
<rect x="142.0" y="128.0" width="52.0" height="15.0" style="fill:orange; stroke:rgb(0,0,0);" rx="1"/>
<text x="144" y="137" style="font-family:sans-serif;font-size:10px;">
baseType
</text>
<rect x="249.0" y="352.0" width="59.0" height="15.0" style="fill:orange; stroke:rgb(0,0,0);" rx="1"/>
<text x="251" y="361" style="font-family:sans-serif;font-size:10px;">
fullIdentifier
</text>
<rect x="1163.0" y="128.0" width="8.0" height="15.0" style="fill:orange; stroke:rgb(0,0,0);" rx="1"/>
<text x="1165" y="137" style="font-family:sans-serif;font-size:10px;">
)
</text>
<rect x="1096.0" y="160.0" width="62.0" height="15.0" style="fill:orange; stroke:rgb(0,0,0);" rx="1"/>
<text x="1098" y="169" style="font-family:sans-serif;font-size:10px;">
primaryExpr
</text>
<rect x="144.0" y="224.0" width="58.0" height="15.0" style="fill:orange; stroke:rgb(0,0,0);" rx="1"/>
<text x="146" y="233" style="font-family:sans-serif;font-size:10px;">
expression
</text>
<rect x="469.5" y="160.0" width="7.0" height="15.0" style="fill:orange; stroke:rgb(0,0,0);" rx="1"/>
<text x="471" y="169" style="font-family:sans-serif;font-size:10px;">
;
</text>
<rect x="1122.0" y="288.0" width="29.0" height="15.0" style="fill:orange; stroke:rgb(0,0,0);" rx="1"/>
<text x="1124" y="297" style="font-family:sans-serif;font-size:10px;">
literal
</text>
<rect x="1128.5" y="320.0" width="16.0" height="15.0" style="fill:orange; stroke:rgb(0,0,0);" rx="1"/>
<text x="1130" y="329" style="font-family:sans-serif;font-size:10px;">
12
</text>
<rect x="922.25" y="96.0" width="7.0" height="15.0" style="fill:orange; stroke:rgb(0,0,0);" rx="1"/>
<text x="924" y="105" style="font-family:sans-serif;font-size:10px;">
;
</text>
<rect x="381.5" y="160.0" width="81.0" height="15.0" style="fill:orange; stroke:rgb(0,0,0);" rx="1"/>
<text x="383" y="169" style="font-family:sans-serif;font-size:10px;">
returnStatement
</text>
<rect x="315.0" y="352.0" width="58.0" height="15.0" style="fill:orange; stroke:rgb(0,0,0);" rx="1"/>
<text x="317" y="361" style="font-family:sans-serif;font-size:10px;">
expression
</text>
<rect x="249.5" y="288.0" width="58.0" height="15.0" style="fill:orange; stroke:rgb(0,0,0);" rx="1"/>
<text x="251" y="297" style="font-family:sans-serif;font-size:10px;">
expression
</text>
<rect x="637.0" y="128.0" width="58.0" height="15.0" style="fill:orange; stroke:rgb(0,0,0);" rx="1"/>
<text x="639" y="137" style="font-family:sans-serif;font-size:10px;">
expression
</text>
<rect x="1107.5" y="224.0" width="58.0" height="15.0" style="fill:orange; stroke:rgb(0,0,0);" rx="1"/>
<text x="1109" y="233" style="font-family:sans-serif;font-size:10px;">
expression
</text>
<rect x="127.0" y="224.0" width="10.0" height="15.0" style="fill:orange; stroke:rgb(0,0,0);" rx="1"/>
<text x="129" y="233" style="font-family:sans-serif;font-size:10px;">
&lt;
</text>
<rect x="60.0" y="256.0" width="62.0" height="15.0" style="fill:orange; stroke:rgb(0,0,0);" rx="1"/>
<text x="62" y="265" style="font-family:sans-serif;font-size:10px;">
primaryExpr
</text>
<rect x="317.0" y="320.0" width="16.0" height="15.0" style="fill:orange; stroke:rgb(0,0,0);" rx="1"/>
<text x="319" y="329" style="font-family:sans-serif;font-size:10px;">
fib
</text>
</svg>